<?xml version="1.0" encoding="utf-8"?>
<!-- Generator: Adobe Illustrator 25.0.0, SVG Export Plug-In . SVG Version: 6.00 Build 0)  -->
<svg version="1.1" id="Layer_1" xmlns="http://www.w3.org/2000/svg" xmlns:xlink="http://www.w3.org/1999/xlink" x="0px" y="0px"
	 viewBox="0 0 127 89" style="enable-background:new 0 0 127 89;" xml:space="preserve">
<style type="text/css">
	.st0{fill:url(#SVGID_1_);}
	.st1{fill:url(#SVGID_2_);}
</style>
<linearGradient id="SVGID_1_" gradientUnits="userSpaceOnUse" x1="102.9463" y1="12.383" x2="124.3481" y2="12.383">
	<stop  offset="8.276507e-02" style="stop-color:#B77EB6"/>
	<stop  offset="0.6632" style="stop-color:#E07F6B"/>
	<stop  offset="0.977" style="stop-color:#F48048"/>
</linearGradient>
<circle class="st0" cx="113.6" cy="12.4" r="10.7"/>
<linearGradient id="SVGID_2_" gradientUnits="userSpaceOnUse" x1="1.1299" y1="47.718" x2="125.8701" y2="47.718">
	<stop  offset="8.276507e-02" style="stop-color:#B77EB6"/>
	<stop  offset="0.6632" style="stop-color:#E07F6B"/>
	<stop  offset="0.977" style="stop-color:#F48048"/>
</linearGradient>
<path class="st1" d="M125.8,17.3c-0.2-0.6-1-0.6-1.2-0.1c-0.8,1.9-2.1,3.7-4,5.1c-4.2,3.2-10.2,3.1-14.4-0.1
	c-2.7-2.1-4.2-4.9-4.6-7.9c-0.1-0.6-0.8-0.9-1.3-0.4L76.9,36.9c-0.8,0.8-2.1,1-3,0.4c-0.1,0-0.1-0.1-0.2-0.1
	c-0.8-0.7-0.9-1.9-0.2-2.7c5.3-6.2,5.9-16.5,0.7-21.7l-0.8-0.8C68.1,6.4,58.9,7,52.9,13.1L6,61c-6,6.1-6.5,15.4-1.1,20.8l0.8,0.8
	c5.4,5.4,15.9,4.8,21.9-1.3l25.4-25.9c3.2-3.1,4.9-3.5,6.1-3.3c0.9,0.2,1.4,1.3,0.9,2.1c-3,5.1-2.3,11.9,2.2,16.6l0.8,0.9
	c5.3,5.5,15,5.9,20.1,0.8l14.8-14.6c0.9-0.9,1.9-0.3,1.7,1.2v15c0,7.3,5.8,13.2,13,13.2c5.1,0,9.6-2.8,12-7.1c0.3-0.6,1-1.9,1-3.2
	C125.6,69.5,126,17.8,125.8,17.3z"/>
</svg>
